<svg width="393" height="382" viewBox="0 0 393 382" fill="none" xmlns="http://www.w3.org/2000/svg">
<path d="M271.654 15.023L274.541 121.649L303.121 97.0033L308.084 72.6566L310.025 72.6706L307.138 93.5381L326.337 76.9824V81.5795L290.427 119.206L328.14 130.108L326.766 133.254L285.694 124.165L274.915 135.459L277.451 229.137L315.213 210.902L330.381 184.774L332.576 186.463L322.039 207.606L353.58 192.376L352.02 198.196L315.711 220.304L315.211 221.309L315.145 220.649L277.837 243.367L280.589 345H262.014L264.679 223.217L238.471 207.258L204.128 211.159L203.291 208.519L232.094 203.375L192.069 179.003L190.509 173.183L210.06 182.623L199.454 165.571L201.222 164.769L216.028 185.506L264.987 209.148L265.874 168.618L210.375 117.843V113.967L228.944 128.155L226.251 108.673L228.192 108.659L232.76 131.07L266.138 156.574L267.99 71.9608L244.535 50.5027V46.9369L268.101 66.8491L269.236 15.023H271.654Z" fill="#564931"/>
<path fill-rule="evenodd" clip-rule="evenodd" d="M300.537 0.212987C294.625 16.7082 284.693 23.6329 270.741 20.987C269.777 5.58619 279.709 -1.33849 300.537 0.212987ZM230.71 15.3238C246.082 23.7416 251.37 34.6315 246.574 47.9936C231.207 46.5365 225.919 35.6466 230.71 15.3238ZM263.688 36.7431C266.487 47.7302 263.665 55.0375 255.224 58.6648C249.132 50.7521 251.954 43.4449 263.688 36.7431ZM248.142 51.0257C242.506 65.3911 230.577 67.4708 212.356 57.265C224.688 44.813 236.616 42.7332 248.142 51.0257ZM331.221 46.1601C342.797 56.3684 340.672 68.2857 324.847 81.9119C317.36 66.069 319.485 54.1517 331.221 46.1601ZM270.203 75.9054C264.566 90.2707 252.638 92.3505 234.417 82.1447C246.748 69.6927 258.677 67.6129 270.203 75.9054ZM353.248 83.2745C347.611 97.6398 335.682 99.7196 317.462 89.5138C329.793 77.0618 341.722 74.982 353.248 83.2745ZM296.765 82.1554C302.673 93.6054 301.418 102.417 292.998 108.591C284.23 101.386 285.486 92.5745 296.765 82.1554ZM210.592 88.2536C222.868 92.1734 228.213 99.2919 226.626 109.609C215.331 110.713 209.986 103.594 210.592 88.2536ZM244.643 90.469C245.249 105.81 239.904 112.928 228.608 111.825C227.022 101.507 232.366 94.3888 244.643 90.469ZM213.281 117.641C213.96 103.461 205.718 94.5926 188.556 91.0357C189.253 101.69 191.748 109.215 196.042 113.61C189.666 114.326 183.175 118.02 176.568 124.692C194.788 134.898 206.717 132.818 212.354 118.453C212.108 118.277 211.863 118.105 211.617 117.938C212.162 117.856 212.717 117.757 213.281 117.641ZM347.6 116.393C342.832 128.363 335.356 133.197 325.171 130.894C324.858 119.552 332.334 114.719 347.6 116.393ZM295.752 121.177C310.309 126.307 312.805 138.152 303.238 156.713C290.36 144.827 287.864 132.982 295.752 121.177ZM174.643 146.678C190.811 153.444 197.208 163.722 193.835 177.512C178.4 177.668 172.003 167.391 174.643 146.678ZM219.322 157.042C232.608 168.471 235.515 180.222 228.044 192.296C213.317 187.676 210.409 175.925 219.322 157.042ZM357.278 160.657C364.207 176.751 361.668 188.587 349.659 196.165C338.447 185.559 340.987 173.723 357.278 160.657ZM205.544 209.643C205.053 209.944 204.566 210.227 204.081 210.491C204.37 210.563 204.66 210.641 204.95 210.723C204.568 226.149 194.071 232.182 173.457 228.821C177.383 220.293 182.219 214.602 187.966 211.749C182.427 209.087 177.507 202.869 173.208 193.095C190.552 190.57 201.331 196.086 205.544 209.643ZM361.438 210.13C367.272 212.799 374.74 212.975 383.841 210.658C373.481 192.528 362.184 188.169 349.952 197.58C350.072 197.858 350.194 198.132 350.319 198.402C349.809 198.191 349.283 197.99 348.739 197.799C340.852 209.604 343.347 221.449 356.225 233.335C361.118 223.844 362.855 216.108 361.438 210.13ZM229.805 237.448C212.932 232.703 205.33 223.281 206.997 209.183C222.297 207.147 229.9 216.569 229.805 237.448ZM333.891 221.431C323.105 228.504 315.665 227.737 311.573 219.128C318.317 213.523 325.757 214.29 333.891 221.431ZM329.514 189.455C320.283 196.057 312.094 192.564 304.946 178.976C317.539 176.234 325.728 179.727 329.514 189.455ZM333.827 162.884C342.024 175.867 340.955 184.703 330.621 189.394C324.087 181.252 325.155 172.415 333.827 162.884ZM210.09 155.22C214.881 163.76 214.162 170.486 207.93 175.398C201.08 170.159 201.8 163.432 210.09 155.22ZM344.795 149.327C329.445 148.862 322.714 143.035 324.604 131.847C335.009 130.984 341.74 136.811 344.795 149.327ZM228.022 132.007C226.703 141.098 220.372 145.713 209.032 145.854C212.47 132.789 218.8 128.173 228.022 132.007ZM245.838 123.422C246.219 133.07 242.858 137.547 235.754 136.853C234.756 130.364 238.117 125.887 245.838 123.422ZM308.067 75.3106C298.837 81.9126 290.648 78.4195 283.5 64.8312C296.092 62.0892 304.282 65.5824 308.067 75.3106ZM312.38 48.7392C320.578 61.7218 319.509 70.5583 309.175 75.2487C302.64 67.1069 303.709 58.2704 312.38 48.7392ZM290.41 36.4393C279.137 37.681 272.291 33.8708 269.873 25.0088C278.559 20.0796 285.404 23.8898 290.41 36.4393ZM270.055 20.4737C261.027 22.1857 254.601 17.705 250.775 7.03166C264.252 6.02777 270.679 10.5084 270.055 20.4737Z" fill="#99C93C"/>
<path fill-rule="evenodd" clip-rule="evenodd" d="M270.055 20.4737C261.027 22.1857 254.601 17.705 250.775 7.03167C264.252 6.02778 270.679 10.5085 270.055 20.4737ZM296.765 82.1554C302.673 93.6055 301.418 102.417 292.998 108.591C284.23 101.386 285.486 92.5745 296.765 82.1554ZM188.556 91.0357C205.718 94.5927 213.96 103.461 213.281 117.641C198.16 120.739 189.918 111.871 188.556 91.0357ZM344.795 149.327C329.445 148.862 322.714 143.035 324.604 131.847C335.009 130.984 341.74 136.811 344.795 149.327ZM348.739 197.799C363.297 202.929 365.792 214.774 356.225 233.335C343.347 221.449 340.852 209.604 348.739 197.799ZM204.95 210.723C204.568 226.149 194.071 232.182 173.457 228.821C180.785 212.904 191.282 206.871 204.95 210.723Z" fill="black" fill-opacity="0.2"/>
<path d="M67.7849 186.76C78.688 188.28 86.3012 198.384 84.7878 209.329C84.5942 210.729 84.2607 212.075 83.8033 213.355L57.6666 290.384C57.5751 290.721 57.4635 291.048 57.3333 291.364L57.3233 291.392C57.2369 291.597 57.1439 291.797 57.0434 291.993L57.082 292.012L4.81849 373.324C2.03769 371.318 2.3477 370.399 2.01268 370.416C2.01268 370.416 12.105 346.81 42.065 285.052L41.8341 285.526C41.9139 285.288 42.0041 285.055 42.1038 284.828L42.1637 284.697L45.0885 205.133L45.1655 205.148C45.1972 204.71 45.2433 204.27 45.3042 203.829C46.8168 192.884 56.8825 185.242 67.7849 186.76Z" fill="#C3786F"/>
<path d="M91.6182 382H114.416V380.389C114.416 380.389 106.546 380.376 91.6182 380.389V382Z" fill="#293845"/>
<path d="M72.8748 185.442C82.9016 182.537 93.3765 188.341 96.2702 198.406C96.5093 199.238 96.6892 200.073 96.8123 200.906L96.8595 200.892L105.975 282.115C106.162 282.993 106.19 283.874 106.077 284.724L97.5537 373.549L92.631 377.177L91.8296 371.452C91.8296 371.452 91.7158 292.257 90.9549 285.242C90.9534 285.241 90.9528 285.238 90.9522 285.235L90.9506 285.236L60.7997 211.272C60.4756 210.519 60.1938 209.737 59.9611 208.928C57.0665 198.862 62.8481 188.347 72.8748 185.442Z" fill="#C3786F"/>
<path d="M72.8748 185.442C82.9016 182.537 93.3765 188.341 96.2702 198.406C96.5093 199.238 96.6892 200.073 96.8123 200.906L96.8595 200.892L105.975 282.115C106.162 282.993 106.19 283.874 106.077 284.724L97.5537 373.549L92.631 377.177L91.8296 371.452C91.8296 371.452 91.7158 292.257 90.9549 285.242C90.9534 285.241 90.9528 285.238 90.9522 285.235L90.9506 285.236L60.7997 211.272C60.4756 210.519 60.1938 209.737 59.9611 208.928C57.0665 198.862 62.8481 188.347 72.8748 185.442Z" fill="black" fill-opacity="0.04"/>
<path d="M91.6182 358.67V380.451L114.416 380.435C114.35 379.034 114.215 378.239 111.503 378.185C107.433 378.107 97.6187 378.55 97.6161 374.65C97.6153 373.818 99.2178 368.893 101.342 359.813L91.6182 358.67Z" fill="#E9E9E9"/>
<path d="M91.6182 358.67V380.451L114.416 380.435C114.35 379.034 114.215 378.239 111.503 378.185C107.433 378.107 97.6187 378.55 97.6161 374.65C97.6153 373.818 99.2178 368.893 101.342 359.813L91.6182 358.67Z" fill="black" fill-opacity="0.02"/>
<path d="M9.45221 350.995L0.627411 370.893L21.4608 380.188C21.9681 378.88 22.1671 378.099 19.7107 376.942C16.0245 375.209 8.28519 371.947 9.86305 368.383C10.1994 367.622 12.2528 363.438 17.8723 356.009L9.45221 350.995Z" fill="#E9E9E9"/>
<path d="M-2.6164e-05 372.308L20.8272 381.617L21.48 380.145C21.48 380.145 14.2951 376.92 0.652841 370.836L-2.6164e-05 372.308Z" fill="#293845"/>
<path d="M97.949 178.155C104.384 214.925 107.721 249.91 107.959 283.108C108.196 316.307 105.293 341.792 99.2478 359.563L91.7655 358.693L82.1737 286.316L50.4977 188.892L97.949 178.155Z" fill="#293845"/>
<path d="M97.949 178.155C104.384 214.925 107.721 249.91 107.959 283.108C108.196 316.307 105.293 341.792 99.2478 359.563L91.7655 358.693L82.1737 286.316L50.4977 188.892L97.949 178.155Z" fill="black" fill-opacity="0.08"/>
<path d="M90.1127 187.449C83.353 226.17 74.9975 258.833 65.046 285.435C55.0945 312.038 38.9834 335.328 16.7127 355.306L10.3671 351.587L35.2088 283.711L47.9767 181.218L90.1127 187.449Z" fill="#293845"/>
<path d="M73.1449 104.696H89.756L87.4773 60.6146L77.8351 58.0012L73.1449 104.696Z" fill="#C3786F"/>
<path d="M73.1449 104.696H89.756L87.4773 60.6146L77.8351 58.0012L73.1449 104.696Z" fill="black" fill-opacity="0.04"/>
<path d="M85.3514 67.4499C89.8993 68.2974 92.531 62.171 93.4307 53.152C94.3321 44.1321 91.3749 36.1326 86.827 35.285C82.28 34.4365 77.8625 41.0607 76.9619 50.0806C76.0614 59.1005 80.8035 66.6014 85.3514 67.4499" fill="#C3786F"/>
<path d="M77.2334 53.817L79.302 50.3094C79.6428 45.1708 80.1549 42.4561 80.8364 42.167C84.0834 40.7917 92.3033 42.5109 92.7847 43.426C93.1561 44.1359 97.3078 31.9985 83.4571 33.8596C74.2225 35.0998 72.1479 41.7522 77.2334 53.817" fill="#2A4862"/>
<path d="M91.252 62.3824C91.8024 62.3636 92.9151 61.9505 92.8682 60.6145L89.5165 60.7317C89.56 61.9693 90.7017 62.4012 91.252 62.3824" fill="white"/>
<path d="M83.433 104.978C83.433 104.978 95.4927 104.249 102.177 104.978C101.778 108.913 101.36 144.383 101.108 157.771C108.207 158.967 120.782 161.377 143.06 165.378V165.378C143.061 165.38 143.064 165.38 143.066 165.38C143.212 165.38 143.356 165.389 143.497 165.406L150.92 163.236L155.619 160.902L161.337 160.943C161.792 160.958 161.783 161.212 161.718 161.247C160.356 161.972 159.147 162.25 157.435 162.233C156.184 163.456 154.606 163.351 155.716 164.522C155.846 164.659 158.728 164.373 161.425 163.445C161.808 163.314 163.717 162.802 163.949 162.724C165.284 162.278 165.467 162.141 166.348 161.678C166.617 161.536 167.015 161.478 167.54 161.505C167.615 161.509 167.687 161.528 167.744 161.559C167.902 161.643 167.919 161.797 167.782 161.901C167.476 162.137 167.132 162.38 166.75 162.632C166.192 163.001 164.33 163.908 162.658 164.52C161.524 164.935 160.124 165.461 159.983 165.568C159.764 165.735 162.089 165.081 163.994 164.709C165.9 164.337 166.765 163.267 168.274 162.409C168.482 162.291 168.917 162.19 169.579 162.105C169.615 162.1 169.958 162.134 169.93 162.317C169.903 162.502 168.352 163.881 167.395 164.531C165.8 165.616 165.4 165.694 164.506 165.923C163.391 166.209 161.431 166.791 160.903 166.973C160.376 167.155 163.532 166.762 165.712 166.035C166.05 165.922 166.711 165.604 167.018 165.464C167.94 165.043 168.982 164.141 169.508 164.187C169.585 164.194 169.659 164.209 169.725 164.233C170.035 164.342 170.14 164.596 169.96 164.8C169.494 165.328 168.707 165.917 167.6 166.565C167.34 166.718 166.3 167.289 165.882 167.411C164.117 167.925 161.805 168.219 161.637 168.358C161.47 168.498 162.792 168.193 164.428 167.913C164.803 167.849 166.276 167.453 166.559 167.397C166.932 167.325 167.176 167.221 167.799 167.036C169.042 166.666 169.338 167.088 168.777 167.557C168.216 168.026 162.793 169.793 160.289 170.282C158.916 170.55 156.26 171.306 152.721 171.505L144.382 171.96C143.981 172.128 143.54 172.221 143.078 172.222H143.072V172.251C107.439 174.167 89.9771 175.734 87.1319 169.339L87.0502 169.142C86.532 168.02 86.2173 166.938 86.0765 165.911L86.0662 165.831C83.0893 155.238 83.7308 115.71 83.433 104.978Z" fill="#C3786F"/>
<path d="M143.425 172.214L143.413 165.633L150.92 163.438L155.619 161.103L161.337 161.145C161.792 161.16 161.784 161.413 161.718 161.448C160.356 162.173 159.147 162.451 157.435 162.434C156.184 163.658 154.606 163.552 155.716 164.723C155.846 164.86 158.728 164.574 161.425 163.646C161.808 163.515 163.717 163.003 163.949 162.925C165.284 162.479 165.467 162.342 166.348 161.88C166.617 161.737 167.015 161.68 167.54 161.707C167.615 161.71 167.687 161.729 167.744 161.76C167.902 161.844 167.919 161.998 167.782 162.103C167.476 162.338 167.132 162.582 166.75 162.834C166.192 163.203 164.33 164.109 162.658 164.721C161.524 165.136 160.124 165.662 159.983 165.77C159.764 165.936 162.089 165.282 163.994 164.91C165.9 164.539 166.765 163.468 168.274 162.611C168.482 162.492 168.917 162.391 169.579 162.306C169.615 162.302 169.958 162.335 169.93 162.519C169.903 162.703 168.352 164.082 167.395 164.732C165.8 165.817 165.4 165.895 164.506 166.124C163.391 166.41 161.431 166.992 160.903 167.174C160.376 167.356 163.532 166.963 165.712 166.236C166.05 166.123 166.711 165.806 167.018 165.666C167.94 165.244 168.982 164.342 169.508 164.388C169.585 164.396 169.659 164.411 169.725 164.434C170.035 164.543 170.141 164.797 169.96 165.001C169.494 165.529 168.707 166.118 167.6 166.766C167.34 166.919 166.3 167.49 165.882 167.612C164.117 168.126 161.805 168.42 161.637 168.56C161.47 168.699 162.792 168.394 164.428 168.114C164.803 168.051 166.276 167.654 166.559 167.599C166.933 167.526 167.176 167.422 167.799 167.237C169.042 166.867 169.338 167.29 168.777 167.758C168.216 168.227 162.793 169.994 160.289 170.483C158.916 170.751 156.26 171.507 152.721 171.706L143.425 172.214Z" fill="black" fill-opacity="0.04"/>
<path d="M76.3423 99.3183C82.0899 91.9518 92.8066 91.2211 99.3398 99.3183C103.695 104.716 105.503 123.196 104.763 154.758L143.072 160.902L143.413 176.292C111.753 178.171 93.3717 174.534 88.2683 165.38C80.613 151.649 70.5947 106.685 76.3423 99.3183Z" fill="#99C93C"/>
<path d="M76.3423 99.3183C82.0899 91.9518 92.8066 91.2211 99.3398 99.3183C103.695 104.716 105.503 123.196 104.763 154.758L143.072 160.902L143.413 176.292C111.753 178.171 93.3717 174.534 88.2683 165.38C80.613 151.649 70.5947 106.685 76.3423 99.3183Z" fill="black" fill-opacity="0.04"/>
<path d="M73.4769 86.6214C73.0251 87.3318 59.9912 89.7966 55.7783 90.9368C41.174 94.8892 40.2279 103.164 40.7701 123.509C40.8556 126.708 40.0514 147.012 41.1189 170.831C41.4045 177.211 41.7122 183.735 42.0336 190.083C43.237 213.848 110.731 211.664 109.477 187.852C109.217 182.93 107.384 135.843 107.346 133.692C107.033 117.453 106.028 107.114 104.328 102.674C100.902 93.7297 99.2211 89.1959 88.6427 87.8882C88.6427 87.8882 89.0053 92.9372 85.1157 92.9365C81.2261 92.9357 74.9509 84.3037 73.4769 86.6214Z" fill="#F7F8F9"/>
<path d="M74.0986 86.0748L97.4304 146.47L99.2528 218.81C76.3313 219.376 62.9102 219.376 58.9896 218.81C55.0689 218.244 49.5335 215.056 42.3831 209.248C39.9691 167.262 38.8893 139.563 39.1438 126.15C39.5256 106.031 39.5256 99.9502 49.2488 93.5161C51.8554 91.7913 56.3229 89.9026 59.7574 88.9394C62.5602 88.1534 67.3406 87.1985 74.0986 86.0748Z" fill="#99C93C"/>
<path d="M44.1298 100.432C44.1298 100.432 60.9557 99.3483 67.6827 100.432C66.951 105.129 67.3848 159.183 67.0133 161.242C68.2356 164.581 70.4587 176.522 77.327 211.822V211.822C77.331 211.839 77.335 211.857 77.3388 211.874L80.7821 217.513L84.1836 221.598L85.5185 227.272C85.6135 227.725 85.3643 227.779 85.3156 227.723C84.2816 226.551 83.7201 225.421 83.3258 223.721C81.8336 222.78 81.5571 221.192 80.6833 222.577C80.5807 222.739 81.5525 225.524 83.1047 227.969C83.3258 228.317 84.2823 230.082 84.4138 230.293C85.169 231.506 85.3468 231.655 86.0085 232.414C86.2114 232.646 86.3634 233.026 86.4629 233.552C86.4773 233.628 86.4766 233.703 86.4598 233.767C86.4165 233.944 86.2707 233.999 86.1362 233.889C85.833 233.643 85.5132 233.362 85.1758 233.045C84.6835 232.582 83.3531 230.959 82.3556 229.452C81.6794 228.43 80.83 227.172 80.6909 227.058C80.4759 226.882 81.6718 229.025 82.4923 230.822C83.3121 232.618 84.5619 233.214 85.7601 234.5C85.9242 234.677 86.1286 235.084 86.3702 235.719C86.3831 235.753 86.4333 236.101 86.2471 236.118C86.0617 236.136 84.3469 234.936 83.4831 234.147C82.0433 232.831 81.8708 232.454 81.4332 231.624C80.8877 230.59 79.8491 228.791 79.5452 228.313C79.2413 227.835 80.3824 230.864 81.6148 232.846C81.8063 233.153 82.2743 233.731 82.4847 234.001C83.1161 234.81 84.2444 235.624 84.3264 236.156C84.3386 236.233 84.3401 236.31 84.334 236.382C84.3021 236.716 84.0802 236.882 83.8379 236.753C83.2118 236.42 82.4498 235.785 81.5525 234.846C81.3413 234.626 80.5359 233.735 80.3171 233.351C79.3917 231.727 78.5484 229.509 78.3729 229.377C78.1973 229.245 78.812 230.481 79.4776 232.034C79.6295 232.387 80.3703 233.751 80.4919 234.018C80.6522 234.369 80.8125 234.585 81.1422 235.157C81.8009 236.299 81.4606 236.695 80.8695 236.254C80.2791 235.813 77.2545 230.872 76.1764 228.51C75.586 227.217 74.2101 224.77 73.1662 221.313L71.2815 214.33C71.0621 213.976 70.9073 213.577 70.8335 213.15C56.7535 185.845 50.5651 171.192 50.6077 163.66C48.6274 154.107 42.5626 110.491 44.1298 100.432Z" fill="#C3786F"/>
<path d="M43.8739 99.3183C49.6215 91.9518 60.3382 91.2211 66.8714 99.3183C71.2269 104.716 72.5312 125.454 70.7845 161.531L83.433 211.633L67.1371 215.904L48.3962 170.038C41.5496 127.802 40.0422 104.229 43.8739 99.3183Z" fill="#99C93C"/>
<path d="M43.8739 99.3183C49.6215 91.9518 60.3382 91.2211 66.8714 99.3183C71.2269 104.716 72.5312 125.454 70.7845 161.531L83.433 211.633L67.1371 215.904L48.3962 170.038C41.5496 127.802 40.0422 104.229 43.8739 99.3183Z" fill="black" fill-opacity="0.04"/>
<path d="M74.2799 86.0237L97.4304 146.47L77.327 125.856L80.6123 116.247L74.2799 112.577V86.0237Z" fill="black" fill-opacity="0.04"/>
<path d="M89.9829 87.9825L97.4304 146.47L99.2528 218.81C102.877 216.498 105.515 214.588 107.167 213.081C108.819 211.574 109.645 210.19 109.645 208.929C110.03 182.459 109.706 160.448 108.674 142.894C107.125 116.564 107.167 102.118 103.353 95.6738C100.81 91.3774 96.353 88.8136 89.9829 87.9825Z" fill="#99C93C"/>
<path d="M89.9829 87.9825L97.4304 146.47L99.2528 218.81C102.877 216.498 105.515 214.588 107.167 213.081C108.819 211.574 109.645 210.19 109.645 208.929C110.03 182.459 109.706 160.448 108.674 142.894C107.125 116.564 107.167 102.118 103.353 95.6738C100.81 91.3774 96.353 88.8136 89.9829 87.9825Z" fill="black" fill-opacity="0.04"/>
<path d="M89.7627 87.5163L97.4306 146.47L102.177 123.921L97.4306 116.247L99.253 109.72L89.7627 87.5163Z" fill="black" fill-opacity="0.04"/>
<path opacity="0.169" d="M40.2783 12.7106H127.402C130.695 12.7106 133.366 15.3911 133.366 18.6976V79.6579C133.366 82.9644 130.695 85.6449 127.402 85.6449H40.2783C36.9846 85.6449 34.3145 82.9644 34.3145 79.6579V18.6976C34.3145 15.3911 36.9846 12.7106 40.2783 12.7106Z" fill="white"/>
<path fill-rule="evenodd" clip-rule="evenodd" d="M40.2783 11H127.402C131.636 11 135.07 14.4463 135.07 18.6976V79.6579C135.07 83.9091 131.636 87.3555 127.402 87.3555H40.2783C36.0435 87.3555 32.6105 83.9091 32.6105 79.6579V18.6976C32.6105 14.4463 36.0435 11 40.2783 11ZM127.402 14.4212H40.2783C37.9256 14.4212 36.0184 16.3358 36.0184 18.6976V79.6579C36.0184 82.0197 37.9256 83.9343 40.2783 83.9343H127.402C129.754 83.9343 131.662 82.0197 131.662 79.6579V18.6976C131.662 16.3358 129.754 14.4212 127.402 14.4212Z" fill="#6161AE"/>
<ellipse cx="44.223" cy="21.8083" rx="2.82688" ry="2.83785" fill="#555555"/>
<ellipse cx="83.8402" cy="79.3702" rx="1.97319" ry="1.98085" fill="#555555"/>
<ellipse cx="90.6228" cy="79.3702" rx="1.97319" ry="1.98085" fill="#555555"/>
<ellipse cx="76.7423" cy="79.3702" rx="1.97319" ry="1.98085" fill="#555555"/>
</svg>
