<svg width="19" height="32" viewBox="0 0 19 32" fill="none" xmlns="http://www.w3.org/2000/svg">
<path d="M0 0H15C17.2091 0 19 1.79086 19 4V28C19 30.2091 17.2091 32 15 32H0V0Z" fill="white"/>
<path d="M8.875 20.625C8.69922 20.625 8.54297 20.5664 8.42578 20.4492C8.17187 20.2148 8.17187 19.8047 8.42578 19.5703L11.7266 16.25L8.42578 12.9492C8.17187 12.7148 8.17187 12.3047 8.42578 12.0703C8.66016 11.8164 9.07031 11.8164 9.30469 12.0703L13.0547 15.8203C13.3086 16.0547 13.3086 16.4648 13.0547 16.6992L9.30469 20.4492C9.1875 20.5664 9.03125 20.625 8.875 20.625Z" fill="#293845"/>
</svg>
